<svg xmlns="http://www.w3.org/2000/svg" viewBox="0 0 64 64" role="img" aria-label="AI chip favicon">
	<defs>
		<linearGradient id="bg" x1="0" x2="64" y1="64" y2="0" gradientUnits="userSpaceOnUse">
			<stop offset="0" stop-color="#0f172a"/>
			<stop offset="1" stop-color="#111827"/>
		</linearGradient>
		<linearGradient id="glow" x1="16" x2="48" y1="52" y2="12" gradientUnits="userSpaceOnUse">
			<stop offset="0" stop-color="#06b6d4" stop-opacity="0.35"/>
			<stop offset="1" stop-color="#22d3ee" stop-opacity="0.9"/>
		</linearGradient>
	</defs>

	<rect x="6" y="6" width="52" height="52" rx="10" fill="url(#bg)" stroke="#1f2937" stroke-width="2"/>
	<rect x="10" y="10" width="44" height="44" rx="8" fill="#0b1223" stroke="#1f2937" stroke-width="1.5"/>

	<g stroke="#22d3ee" stroke-width="2" stroke-linecap="round">
		<path d="M18 20h-4m0 0v6m0-6 4 4"/>
		<path d="M46 20h4m0 0v6m0-6-4 4"/>
		<path d="M18 44h-4m0 0v-6m0 6 4-4"/>
		<path d="M46 44h4m0 0v-6m0 6-4-4"/>
	</g>

	<rect x="18" y="18" width="28" height="28" rx="6" fill="url(#glow)" stroke="#38bdf8" stroke-width="1.4"/>

	<path d="M24 24h16v2H24zm0 6h16v2H24zm0 6h10v2H24zm14-2v-8m0 12v-2" fill="none" stroke="#e0f2fe" stroke-width="1.6" stroke-linecap="round"/>

	<circle cx="28" cy="26" r="1.6" fill="#e0f2fe"/>
	<circle cx="34" cy="32" r="1.6" fill="#e0f2fe"/>
	<circle cx="28" cy="38" r="1.6" fill="#e0f2fe"/>
</svg>